PathFileType	4	(X/Y/Z)	TVC_26_Cal_03_0_static_RCNL2025.trc
DataRate	CameraRate	NumFrames	NumMarkers	Units	OrigDataRate	OrigDataStartFrame	OrigNumFrames
100	100	8	27	mm	100	106	420
Frame#	Time	R_Shoulder			L_Shoulder			C7			J_Notch			R_Elbow			L_Elbow			R_Wrist			L_Wrist			R_Asis			L_Asis			R_Psis			L_Psis			Sacral			Thoracic			Sternum			R_Thigh_Lateral			R_Knee_Lateral			R_Shank_Lateral			R_Ankle_Lateral			R_Heel			R_Toe			L_Thigh_Lateral			L_Knee_Lateral			L_Shank_Lateral			L_Ankle_Lateral			L_Heel			L_Toe		
		X1	Y1	Z1	X2	Y2	Z2	X3	Y3	Z3	X4	Y4	Z4	X5	Y5	Z5	X6	Y6	Z6	X7	Y7	Z7	X8	Y8	Z8	X9	Y9	Z9	X10	Y10	Z10	X11	Y11	Z11	X12	Y12	Z12	X13	Y13	Z13	X14	Y14	Z14	X15	Y15	Z15	X16	Y16	Z16	X17	Y17	Z17	X18	Y18	Z18	X19	Y19	Z19	X20	Y20	Z20	X21	Y21	Z21	X22	Y22	Z22	X23	Y23	Z23	X24	Y24	Z24	X25	Y25	Z25	X26	Y26	Z26	X27	Y27	Z27
106	1.05000000	-159.742554	1353.711182	-116.322578	-84.615982	1383.398804	-429.192322	-198.161789	1417.264893	-282.626221	-64.951385	1306.512817	-251.900757	-183.150803	1025.623413	13.426663	-91.985886	1051.402344	-521.429565	-171.726799	812.652710	39.163289	-87.741024	828.921906	-507.437042	-134.061905	951.934082	-119.909782	-42.627190	954.707275	-391.757904	-305.487213	976.375732	-247.983917	-260.816010	969.052002	-388.763397	-283.151611	972.713867	-318.373657	-274.328583	1143.361206	-322.627533	-22.649776	1072.092773	-261.534729	-223.877380	579.629883	-86.297783	-237.385132	434.285950	-134.197144	-255.923172	283.347382	-83.555038	-269.174255	76.480591	-135.824646	-312.915283	55.507332	-184.813736	-128.772675	39.892277	-150.411194	-83.593483	583.894226	-452.394409	-180.635345	416.544861	-420.674652	-163.695953	267.791748	-456.943054	-195.087677	68.039253	-389.627869	-250.994553	51.161377	-347.778717	-59.930195	39.745632	-350.026642
107	1.06000000	-160.032288	1353.777710	-116.314980	-85.058121	1383.348877	-429.233826	-198.548172	1417.261353	-282.637543	-65.368286	1306.473389	-251.962906	-183.028366	1025.397339	13.475594	-92.538155	1051.358276	-521.451233	-171.999771	812.669891	39.409790	-88.202820	828.771606	-507.351028	-134.368271	951.941101	-119.863266	-42.949093	954.710938	-391.746704	-305.840088	976.298645	-247.826355	-261.189636	968.980591	-388.642273	-283.514862	972.639618	-318.234314	-274.730225	1143.336304	-322.574493	-22.986425	1072.073486	-261.557892	-224.054001	579.792725	-86.191833	-237.564545	434.282837	-134.110016	-255.984268	283.278992	-83.478958	-269.202240	76.356323	-135.799561	-312.889282	55.363663	-184.836990	-128.798248	39.843098	-150.395935	-83.788757	584.123840	-452.547913	-180.698303	416.522156	-420.627960	-163.644180	267.810211	-457.068909	-195.072235	67.955406	-389.558716	-250.975296	51.223217	-347.806580	-59.972740	39.685684	-350.102203
108	1.07000000	-160.308228	1353.804077	-116.385109	-85.334053	1383.412842	-429.477905	-198.918564	1417.228516	-282.626953	-65.824387	1306.455688	-251.948685	-183.168243	1025.370972	13.501113	-92.973160	1051.233398	-521.418396	-172.346436	812.794342	39.645209	-88.741707	828.627045	-507.345169	-134.984604	951.986755	-120.048134	-43.302223	954.764160	-391.653168	-306.118713	976.204468	-247.722748	-261.558289	968.938904	-388.527435	-283.838501	972.571686	-318.125092	-275.056000	1143.352051	-322.418152	-23.297436	1072.119263	-261.586639	-224.416748	579.780457	-86.038704	-237.677933	434.183044	-134.079041	-256.202728	283.212067	-83.332993	-269.150482	76.326851	-135.825134	-312.934204	55.382614	-184.683640	-128.768250	39.894245	-150.387802	-83.970932	584.165588	-452.556763	-180.880737	416.548370	-420.684753	-164.355164	268.159454	-457.538818	-195.136276	67.944252	-389.652069	-251.002441	51.125957	-347.783936	-59.754768	39.738029	-350.381226
109	1.08000000	-160.613678	1353.763306	-116.360558	-86.104073	1383.147583	-429.523865	-199.332703	1417.229126	-282.592712	-66.156433	1306.545898	-251.991684	-183.557678	1025.557251	13.647570	-93.298317	1051.102539	-521.538757	-172.705162	812.892487	39.741071	-89.500874	828.634644	-507.119568	-135.281982	951.844849	-120.077927	-43.623341	954.811890	-391.648468	-306.300995	976.067383	-247.584000	-261.860565	968.915283	-388.420532	-284.080780	972.491333	-318.002266	-275.441193	1143.263794	-322.368622	-23.690275	1072.173950	-261.597443	-224.370361	579.599976	-86.003967	-237.785416	434.148743	-133.972275	-256.262665	283.166229	-83.316544	-269.202576	76.182007	-135.829849	-313.013275	55.232330	-184.626282	-128.781982	39.830067	-150.414520	-84.135597	584.268127	-452.517487	-181.018173	416.501312	-420.622284	-163.691391	267.856354	-457.326416	-195.042770	67.902817	-389.869873	-250.985123	51.110600	-347.819427	-59.975258	39.691601	-350.152863
110	1.09000000	-160.905502	1353.786743	-116.401070	-86.628403	1383.324341	-429.461700	-199.712433	1417.310791	-282.545258	-66.567001	1306.495605	-252.062042	-183.933426	1025.838135	13.628220	-93.903519	1051.118042	-521.251526	-172.949875	812.922058	39.838202	-90.023170	828.485931	-507.126801	-135.515656	951.865662	-119.892479	-43.988068	954.908691	-391.723022	-306.707855	975.997681	-247.498291	-262.206512	968.951965	-388.390564	-284.457184	972.474823	-317.944427	-275.958252	1143.317017	-322.231079	-24.018192	1072.198364	-261.562103	-224.385437	579.473694	-86.040733	-237.904572	434.037567	-133.876511	-256.399231	283.029449	-83.186974	-269.147217	76.133667	-135.771606	-313.038422	55.225758	-184.591324	-128.797928	39.838493	-150.397003	-84.315804	584.204956	-452.453796	-181.143906	416.548218	-420.577240	-163.546890	267.876160	-457.255737	-195.050735	67.877228	-389.859955	-251.064865	51.061050	-347.756897	-60.010448	39.732426	-350.089844
111	1.10000000	-161.217575	1353.856079	-116.423302	-87.115654	1383.400024	-429.504761	-200.115189	1417.277222	-282.563538	-67.004829	1306.513062	-252.150635	-183.923477	1025.985962	13.894922	-94.406174	1051.015137	-521.230713	-173.179565	813.012970	39.883823	-90.637444	828.334503	-507.025345	-136.021912	951.844604	-119.918861	-44.306511	954.929138	-391.738281	-306.996765	975.907593	-247.400848	-262.523285	968.925293	-388.271240	-284.760025	972.416443	-317.836044	-276.479218	1143.206177	-321.990662	-24.418379	1072.169678	-261.652863	-224.517868	579.472412	-85.951729	-237.959290	433.999451	-133.840240	-256.455536	283.016693	-83.160721	-269.137115	76.121933	-135.750229	-313.073303	55.144848	-184.531616	-128.809677	39.866447	-150.408844	-84.492790	584.209778	-452.417694	-181.275513	416.520782	-420.495453	-164.257019	268.843750	-457.158844	-195.090500	67.940567	-389.899139	-251.049850	51.041470	-347.789062	-60.112164	39.740864	-350.039154
112	1.11000000	-161.669678	1353.944580	-116.367264	-87.627106	1383.394409	-429.616211	-200.590408	1417.030029	-282.529083	-67.498245	1306.571777	-252.131958	-184.531357	1025.877930	13.870365	-94.818512	1051.017944	-521.158813	-173.503723	813.067810	39.986694	-91.323990	828.194977	-506.979080	-136.526093	951.782898	-120.028503	-44.600857	955.008301	-391.814423	-307.284821	975.933899	-247.184662	-262.940033	968.772522	-388.179749	-285.112427	972.353210	-317.682205	-276.903992	1143.378052	-321.927948	-24.715832	1072.298218	-261.661224	-224.802963	579.706238	-85.774300	-238.065002	434.078552	-133.813828	-256.578461	283.015411	-83.116280	-269.112274	76.080093	-135.746078	-313.057587	55.207626	-184.554718	-128.835022	39.883743	-150.330414	-84.639816	584.344421	-452.352509	-181.364532	416.560608	-420.475311	-163.754227	268.802002	-456.893860	-195.137314	67.924263	-389.889740	-251.041260	51.041821	-347.798462	-60.124687	39.738544	-350.037994
113	1.12000000	-162.916473	1353.857300	-115.973404	-88.116013	1383.288574	-429.704376	-201.132172	1417.268066	-282.487335	-67.952385	1306.556885	-252.168625	-184.929626	1025.966064	13.922716	-95.398315	1050.913452	-520.855530	-173.665154	813.231201	40.134221	-91.845695	828.235168	-506.839661	-136.862198	951.738586	-120.099197	-44.938469	955.116760	-391.727539	-307.612396	975.833069	-247.152267	-263.246582	968.790527	-388.128265	-285.429489	972.311798	-317.640266	-277.290192	1143.399170	-321.917694	-25.094629	1072.331421	-261.728271	-224.870560	579.717163	-85.733833	-238.184891	434.186462	-133.810104	-256.384033	283.358307	-83.109688	-269.084564	76.072197	-135.782089	-313.026276	55.144588	-184.654282	-128.834305	39.884647	-150.336746	-84.735878	584.416626	-452.250793	-181.474304	416.592468	-420.446106	-163.768173	268.773346	-457.640961	-195.138458	67.894875	-389.851440	-251.002213	51.050529	-347.785339	-60.028671	39.706543	-350.092621
